<?xml version="1.0" encoding="UTF-8" standalone="no"?>
<!-- Created with Inkscape (http://www.inkscape.org/) -->

<svg
   xmlns:dc="http://purl.org/dc/elements/1.1/"
   xmlns:cc="http://creativecommons.org/ns#"
   xmlns:rdf="http://www.w3.org/1999/02/22-rdf-syntax-ns#"
   xmlns:svg="http://www.w3.org/2000/svg"
   xmlns="http://www.w3.org/2000/svg"
   xmlns:sodipodi="http://sodipodi.sourceforge.net/DTD/sodipodi-0.dtd"
   xmlns:inkscape="http://www.inkscape.org/namespaces/inkscape"
   version="1.1"
   id="svg249"
   width="450"
   height="529.09479"
   viewBox="0 0 450 529.09479"
   sodipodi:docname="logo.svg"
   inkscape:version="0.92.4 5da689c313, 2019-01-14">
  <metadata
     id="metadata255">
    <rdf:RDF>
      <cc:Work
         rdf:about="">
        <dc:format>image/svg+xml</dc:format>
        <dc:type
           rdf:resource="http://purl.org/dc/dcmitype/StillImage" />
        <dc:title />
      </cc:Work>
    </rdf:RDF>
  </metadata>
  <defs
     id="defs253" />
  <sodipodi:namedview
     pagecolor="#ffffff"
     bordercolor="#666666"
     borderopacity="1"
     objecttolerance="10"
     gridtolerance="10"
     guidetolerance="10"
     inkscape:pageopacity="0"
     inkscape:pageshadow="2"
     inkscape:window-width="3840"
     inkscape:window-height="2124"
     id="namedview251"
     showgrid="false"
     inkscape:zoom="2.9667058"
     inkscape:cx="122.4513"
     inkscape:cy="227.26083"
     inkscape:window-x="0"
     inkscape:window-y="36"
     inkscape:window-maximized="1"
     inkscape:current-layer="svg249"
     showguides="true"
     inkscape:guide-bbox="true"
     fit-margin-top="0"
     fit-margin-left="0"
     fit-margin-right="0"
     fit-margin-bottom="0">
    <sodipodi:guide
       position="223.81727,211.56493"
       orientation="1,0"
       id="guide4523"
       inkscape:locked="false" />
  </sodipodi:namedview>
  <g
     id="g3962">
    <path
       style="fill:#fefefe"
       d="M 180,435 V 420 H 150 120 V 405 390 H 75 30 V 330 270 H 15 0 V 225 180 H 15 30 V 120 60 h 45 45 V 45 30 h 30 30 V 15 0 h 45 45 v 15 15 h 30 30 v 15 15 h 45 45 v 60 60 h 15 15 v 45 45 h -15 -15 v 60 60 h -45 -45 v 15 15 h -30 -30 v 15 15 h -45 -45 z"
       id="path3966"
       inkscape:connector-curvature="0" />
    <path
       style="fill:#0076a5"
       d="M 180,435 V 420 H 150 120 V 405 390 H 75 30 V 330 270 H 15 0 V 225 180 H 15 30 V 120 60 h 45 45 V 45 30 h 30 30 V 15 0 h 45 45 v 15 15 h 30 30 v 15 15 h 45 45 v 60 60 h 15 15 v 45 45 h -15 -15 v 60 60 h -45 -45 v 15 15 h -30 -30 v 15 15 h -45 -45 z m 0,-60 v -15 h 15 15 v -15 -15 h 15 15 v 15 15 h 15 15 v 15 15 h 15 15 v -15 -15 h -15 -15 v -15 -15 h -15 -15 v -30 -30 h 15 15 v 15 15 h 15 15 v 15 15 h 30 30 v 15 15 h 15 15 v -15 -15 h -15 -15 v -15 -15 h -30 -30 v -30 -30 h 15 15 v 15 15 h 30 30 v -15 -15 h 15 15 v -15 -15 h -15 -15 v 15 15 h -30 -30 v -15 -15 h 15 15 v -30 -30 h -15 -15 v -15 -15 h -15 -15 v 15 15 h 15 15 v 15 15 h -15 -15 v 15 15 h -15 -15 v -15 -15 h -15 -15 v -15 -15 h 15 15 V 105 60 h -45 -45 v 45 45 h 15 15 v 15 15 h -15 -15 v 15 15 h -15 -15 v -15 -15 h -15 -15 v -15 -15 h 15 15 v -15 -15 h -15 -15 v 15 15 H 105 90 v 30 30 h 15 15 v 15 15 H 90 60 V 225 210 H 45 30 v 15 15 h 15 15 v 15 15 h 30 30 v -15 -15 h 15 15 v 30 30 H 120 90 v 15 15 H 75 60 v 15 15 h 15 15 v -15 -15 h 30 30 v -15 -15 h 15 15 v -15 -15 h 15 15 v 30 30 h -15 -15 v 15 15 h -15 -15 v 15 15 h 15 15 z"
       id="path3964"
       inkscape:connector-curvature="0" />
  </g>
  <g
     aria-label="Flexkube"
     style="font-style:normal;font-variant:normal;font-weight:normal;font-stretch:normal;font-size:80px;line-height:1.25;font-family:sans-serif;-inkscape-font-specification:'sans-serif, Normal';font-variant-ligatures:normal;font-variant-caps:normal;font-variant-numeric:normal;font-feature-settings:normal;text-align:start;letter-spacing:0px;word-spacing:0px;writing-mode:lr-tb;text-anchor:start;fill:#0076a5;fill-opacity:1;stroke:none"
     id="text3716">
    <path
       d="m 2.441708,527.86407 v -65.60399 h 41.463999 v 10.12933 H 14.369708 v 16.756 h 26.222666 v 10.12933 H 14.369708 v 28.58933 z"
       style="font-style:normal;font-variant:normal;font-weight:600;font-stretch:normal;font-size:94.66666412px;font-family:Ubuntu;-inkscape-font-specification:'Ubuntu, Semi-Bold';font-variant-ligatures:normal;font-variant-caps:normal;font-variant-numeric:normal;font-feature-settings:normal;text-align:start;letter-spacing:8px;writing-mode:lr-tb;text-anchor:start;fill:#0076a5;fill-opacity:1"
       id="path59" />
    <path
       d="m 79.26425,528.81074 q -5.112,-0.0947 -8.52,-1.136 -3.313333,-1.04133 -5.301333,-2.93467 -1.988,-1.988 -2.84,-4.828 -0.757333,-2.93466 -0.757333,-6.62666 v -56.98933 l 11.454666,-1.89334 v 56.70534 q 0,2.08266 0.284,3.50266 0.378667,1.42 1.230667,2.46133 0.852,0.94667 2.272,1.51467 1.514666,0.47333 3.786666,0.75733 z"
       style="font-style:normal;font-variant:normal;font-weight:600;font-stretch:normal;font-size:94.66666412px;font-family:Ubuntu;-inkscape-font-specification:'Ubuntu, Semi-Bold';font-variant-ligatures:normal;font-variant-caps:normal;font-variant-numeric:normal;font-feature-settings:normal;text-align:start;letter-spacing:8px;writing-mode:lr-tb;text-anchor:start;fill:#0076a5;fill-opacity:1"
       id="path61" />
    <path
       d="m 95.40549,503.34541 q 0,-6.532 1.893333,-11.45467 1.988,-4.92266 5.206667,-8.14133 3.21867,-3.31333 7.384,-4.92267 4.16533,-1.704 8.52,-1.704 10.224,0 15.904,6.34267 5.77467,6.34267 5.77467,18.93333 0,0.94667 -0.0947,2.17734 0,1.136 -0.0947,2.08266 h -32.66 q 0.47334,5.964 4.16534,9.27734 3.78666,3.21866 10.88666,3.21866 4.16534,0 7.57334,-0.75733 3.50266,-0.75734 5.49066,-1.60933 l 1.51467,9.37199 q -0.94667,0.47334 -2.65067,1.04134 -1.60933,0.47333 -3.78666,0.852 -2.08267,0.47333 -4.544,0.75733 -2.46134,0.284 -5.01734,0.284 -6.532,0 -11.36,-1.89333 -4.828,-1.988 -7.952,-5.396 -3.123997,-3.50267 -4.638664,-8.14133 -1.514666,-4.73334 -1.514666,-10.31867 z m 33.228,-5.112 q 0,-2.36667 -0.66267,-4.44933 -0.66266,-2.17734 -1.988,-3.692 -1.23066,-1.60934 -3.124,-2.46134 -1.79866,-0.94666 -4.35466,-0.94666 -2.65067,0 -4.63867,1.04133 -1.988,0.94667 -3.408,2.556 -1.32533,1.60933 -2.08267,3.692 -0.75733,2.08267 -1.04133,4.26 z"
       style="font-style:normal;font-variant:normal;font-weight:600;font-stretch:normal;font-size:94.66666412px;font-family:Ubuntu;-inkscape-font-specification:'Ubuntu, Semi-Bold';font-variant-ligatures:normal;font-variant-caps:normal;font-variant-numeric:normal;font-feature-settings:normal;text-align:start;letter-spacing:8px;writing-mode:lr-tb;text-anchor:start;fill:#0076a5;fill-opacity:1"
       id="path63" />
    <path
       d="m 178.00274,494.54141 10.508,-16.188 h 12.02266 l -16.28266,23.38267 q 5.112,6.62666 9.75066,13.44266 4.73334,6.72133 7.76267,12.68533 h -12.40133 q -0.852,-1.79866 -2.272,-4.07066 -1.32534,-2.36667 -2.93467,-4.828 -1.51467,-2.556 -3.21867,-5.01733 -1.704,-2.46134 -3.31333,-4.63867 -3.31333,4.26 -6.532,9.46666 -3.124,5.112 -5.20667,9.088 h -11.73866 q 1.42,-2.84 3.408,-6.05866 1.988,-3.21867 4.26,-6.532 2.272,-3.408 4.63866,-6.72133 2.46134,-3.408 4.828,-6.43734 l -16.37733,-23.76133 h 12.59067 z"
       style="font-style:normal;font-variant:normal;font-weight:600;font-stretch:normal;font-size:94.66666412px;font-family:Ubuntu;-inkscape-font-specification:'Ubuntu, Semi-Bold';font-variant-ligatures:normal;font-variant-caps:normal;font-variant-numeric:normal;font-feature-settings:normal;text-align:start;letter-spacing:8px;writing-mode:lr-tb;text-anchor:start;fill:#0076a5;fill-opacity:1"
       id="path65" />
    <path
       d="m 229.73867,497.66541 q 2.17733,-2.272 4.63866,-4.828 2.46134,-2.65067 4.828,-5.20667 2.36667,-2.65066 4.44934,-5.01733 2.17733,-2.46133 3.692,-4.26 H 260.884 q -4.73333,5.30133 -10.03467,10.98133 -5.20666,5.68 -10.508,11.076 2.84,2.36667 5.964,5.77467 3.124,3.31333 6.05867,7.1 2.93467,3.78666 5.49067,7.57333 2.556,3.78667 4.26,7.00533 h -13.25334 q -1.704,-2.93466 -3.976,-6.15333 -2.17733,-3.21867 -4.73333,-6.248 -2.556,-3.02933 -5.20667,-5.68 -2.65066,-2.74533 -5.20666,-4.63866 v 22.71999 H 218.284 v -71.56799 l 11.45467,-1.89334 z"
       style="font-style:normal;font-variant:normal;font-weight:600;font-stretch:normal;font-size:94.66666412px;font-family:Ubuntu;-inkscape-font-specification:'Ubuntu, Semi-Bold';font-variant-ligatures:normal;font-variant-caps:normal;font-variant-numeric:normal;font-feature-settings:normal;text-align:start;letter-spacing:8px;writing-mode:lr-tb;text-anchor:start;fill:#0076a5;fill-opacity:1"
       id="path67" />
    <path
       d="m 319.05721,526.34941 q -3.31333,0.852 -8.61467,1.704 -5.30133,0.94666 -11.644,0.94666 -5.964,0 -10.03466,-1.704 -3.976,-1.704 -6.43734,-4.73333 -2.36666,-3.02933 -3.408,-7.19466 -1.04133,-4.26 -1.04133,-9.27734 v -27.73733 h 11.45467 v 25.93867 q 0,7.952 2.272,11.36 2.36666,3.40799 8.14133,3.40799 2.08267,0 4.35467,-0.18933 2.36666,-0.18933 3.50266,-0.47333 v -40.044 h 11.45467 z"
       style="font-style:normal;font-variant:normal;font-weight:600;font-stretch:normal;font-size:94.66666412px;font-family:Ubuntu;-inkscape-font-specification:'Ubuntu, Semi-Bold';font-variant-ligatures:normal;font-variant-caps:normal;font-variant-numeric:normal;font-feature-settings:normal;text-align:start;letter-spacing:8px;writing-mode:lr-tb;text-anchor:start;fill:#0076a5;fill-opacity:1"
       id="path69" />
    <path
       d="m 374.48506,502.96674 q 0,-7.28933 -2.93466,-11.54933 -2.84,-4.26 -9.088,-4.26 -2.84,0 -5.396,0.852 -2.46134,0.852 -3.976,1.89333 v 28.49467 q 1.23066,0.284 3.124,0.568 1.988,0.18933 4.73333,0.18933 6.34267,0 9.94,-4.26 3.59733,-4.35466 3.59733,-11.928 z m 11.73867,0.18934 q 0,5.964 -1.79867,10.792 -1.704,4.73333 -5.01733,8.14133 -3.21867,3.408 -7.85733,5.20666 -4.63867,1.79867 -10.508,1.79867 -5.68,0 -10.88667,-0.852 -5.112,-0.852 -8.52,-1.89333 v -70.05333 l 11.45467,-1.89334 v 25.65467 q 1.988,-1.04133 4.828,-1.89333 2.93466,-0.852 6.43733,-0.852 5.20667,0 9.27733,1.89333 4.16534,1.79867 6.91067,5.20667 2.74533,3.408 4.16533,8.236 1.51467,4.73333 1.51467,10.508 z"
       style="font-style:normal;font-variant:normal;font-weight:600;font-stretch:normal;font-size:94.66666412px;font-family:Ubuntu;-inkscape-font-specification:'Ubuntu, Semi-Bold';font-variant-ligatures:normal;font-variant-caps:normal;font-variant-numeric:normal;font-feature-settings:normal;text-align:start;letter-spacing:8px;writing-mode:lr-tb;text-anchor:start;fill:#0076a5;fill-opacity:1"
       id="path71" />
    <path
       d="m 403.3116,503.34541 q 0,-6.532 1.89334,-11.45467 1.988,-4.92266 5.20666,-8.14133 3.21867,-3.31333 7.384,-4.92267 4.16534,-1.704 8.52,-1.704 10.224,0 15.904,6.34267 5.77467,6.34267 5.77467,18.93333 0,0.94667 -0.0947,2.17734 0,1.136 -0.0947,2.08266 h -32.65999 q 0.47333,5.964 4.16533,9.27734 3.78667,3.21866 10.88666,3.21866 4.16534,0 7.57334,-0.75733 3.50266,-0.75734 5.49066,-1.60933 l 1.51467,9.37199 q -0.94667,0.47334 -2.65067,1.04134 -1.60933,0.47333 -3.78666,0.852 -2.08267,0.47333 -4.544,0.75733 -2.46134,0.284 -5.01734,0.284 -6.53199,0 -11.35999,-1.89333 -4.828,-1.988 -7.952,-5.396 -3.124,-3.50267 -4.63867,-8.14133 -1.51467,-4.73334 -1.51467,-10.31867 z m 33.228,-5.112 q 0,-2.36667 -0.66267,-4.44933 -0.66266,-2.17734 -1.988,-3.692 -1.23066,-1.60934 -3.124,-2.46134 -1.79866,-0.94666 -4.35466,-0.94666 -2.65067,0 -4.63867,1.04133 -1.988,0.94667 -3.408,2.556 -1.32533,1.60933 -2.08266,3.692 -0.75734,2.08267 -1.04134,4.26 z"
       style="font-style:normal;font-variant:normal;font-weight:600;font-stretch:normal;font-size:94.66666412px;font-family:Ubuntu;-inkscape-font-specification:'Ubuntu, Semi-Bold';font-variant-ligatures:normal;font-variant-caps:normal;font-variant-numeric:normal;font-feature-settings:normal;text-align:start;letter-spacing:8px;writing-mode:lr-tb;text-anchor:start;fill:#0076a5;fill-opacity:1"
       id="path73" />
  </g>
</svg>
